# xmcd
#
# Track frame offsets: 
#        150
#        11797
#        25404
#        38563
#        51516
#        64782
#        74490
#        87311
#        100025
#        111635
#        123787
#        138146
#        148442
#        160189
#        173523
#        186585
#        198460
#        210374
#        219700
#        232507
#        244112
#        256550
#
# Disc length: 3628 seconds
#
# Revision: 0
# Processed by: cddbd v1.5.2PL0 Copyright (c) Steve Scherf et al.
# Submitted via: ExactAudioCopy v1.1
#
DISCID=3b0e2a16
DTITLE=Various Artist - All-Time Country Favourites -  Legends Disc 2
DYEAR=2008
DGENRE=Country
TTITLE0=Crystal Gayle - Don't it make my brown eyes blue
TTITLE1=John Denver - Annnie's song
TTITLE2=Tanya Tucker - Delta Dawn
TTITLE3=Kitty Wells - Making Believe
TTITLE4=Loretta Lynn - Woman of the world ( leave my world alone )
TTITLE5=Louvin Brothers - I don't believe you've met my baby
TTITLE6=Charley Pride - Crystal Chandeliers
TTITLE7=Slim Whitman - Secret Love
TTITLE8=Frankie Laine - Where the winds blow
TTITLE9=Eddy Arnold - Make the world go away
TTITLE10=Ernest Tubb - My Filipino Rose
TTITLE11=Jimmie Rogers - Honeycombe
TTITLE12=Porter Waggoner - Misery loves company
TTITLE13=Red Foley - Smoke on the water
TTITLE14=Bobby Helms - Fraulein
TTITLE15=Hank Snow - Ninety miles an hour ( down dead end street )
TTITLE16=Brenda Lee - Sunday sunrise
TTITLE17=Chet Atkins - Yakety Axe
TTITLE18=Tennessee Ernie Ford - The ballad of Davy Crockett
TTITLE19=Gene Autry - Don't fence me in
TTITLE20=Sons of the Pioneers - Cool water
TTITLE21=Bill Anderson - Mama sang a song
EXTD=
EXTT0=
EXTT1=
EXTT2=
EXTT3=
EXTT4=
EXTT5=
EXTT6=
EXTT7=
EXTT8=
EXTT9=
EXTT10=
EXTT11=
EXTT12=
EXTT13=
EXTT14=
EXTT15=
EXTT16=
EXTT17=
EXTT18=
EXTT19=
EXTT20=
EXTT21=
PLAYORDER=
